<svg width="143" height="24" viewBox="0 0 143 24" fill="none" xmlns="http://www.w3.org/2000/svg">
<path d="M21.6605 19.6419C22.5027 18.2382 22.4516 16.605 21.5296 15.2524L13.6432 3.8087C12.8922 2.71897 11.5357 2.03113 10.2771 2.44036C10.2045 2.46397 10.1316 2.48957 10.0579 2.51753C9.51948 2.722 9.0985 3.1391 8.76373 3.60779L7.86915 4.86019C7.74891 5.02853 7.73373 5.25022 7.82988 5.43338C7.97368 5.70728 8.31555 5.80792 8.58481 5.65561L9.66856 5.04258C9.92578 4.89708 10.2309 4.86182 10.5146 4.94484C10.7574 5.01592 10.9682 5.169 11.1108 5.37799L19.0199 16.9629C19.2745 17.3364 19.2885 17.8239 19.056 18.2115C18.6388 18.9067 17.6156 18.9694 17.1135 18.3328L9.7017 8.93355C8.47279 7.37511 6.08798 7.44559 4.95323 9.07387L0.753792 15.0998C-0.0809157 16.2976 -0.228828 17.7587 0.342203 19.1023C1.70978 22.3201 6.07452 22.559 7.93281 19.6016C8.06861 19.3855 8.19388 19.1706 8.31067 18.9613C8.80718 18.0714 8.64145 16.9345 7.93488 16.2002C7.75107 16.0092 7.44327 16.0155 7.26622 16.2128C6.85216 16.6742 6.10225 17.4958 5.35517 18.2429C4.47596 19.1221 3.4369 18.9622 3.03726 18.083C2.85237 17.6763 3.00864 17.1764 3.24564 16.8364L7.13881 11.2499C7.26095 11.0746 7.51733 11.0662 7.65077 11.233L14.7286 20.0812C16.5468 22.387 20.1497 22.1599 21.6605 19.6419Z" fill="#FF4600"/>
<path fill-rule="evenodd" clip-rule="evenodd" d="M136.339 12.9525L136.338 12.9523C135.378 12.7449 134.249 12.4969 133.361 11.9712C132.913 11.7058 132.518 11.3652 132.236 10.9156C131.952 10.4643 131.79 9.91595 131.79 9.24912C131.79 8.06677 132.293 7.05945 133.177 6.35276C134.058 5.64934 135.302 5.25322 136.779 5.25322C138.324 5.25322 139.515 5.56542 140.328 6.01266C141.127 6.45219 141.611 7.05526 141.611 7.65264C141.611 7.8437 141.551 8.01515 141.467 8.16145C141.362 8.34325 141.214 8.46662 141.04 8.53304C140.869 8.59798 140.686 8.6035 140.513 8.5758C140.171 8.52103 139.823 8.33031 139.559 8.10589C138.881 7.52813 137.946 7.15558 136.779 7.15558C135.789 7.15558 135.057 7.36565 134.579 7.69855C134.11 8.02576 133.875 8.47837 133.875 9.01391C133.875 9.31129 133.94 9.53884 134.059 9.72452C134.178 9.91193 134.363 10.0742 134.63 10.2216C135.177 10.5222 136.01 10.732 137.168 10.982L137.169 10.9822C137.187 10.9863 137.206 10.9903 137.224 10.9944C138.209 11.2118 139.364 11.4667 140.276 11.9911C140.745 12.2606 141.159 12.6063 141.456 13.0637C141.754 13.523 141.925 14.0822 141.925 14.7636C141.925 15.9836 141.423 16.9994 140.515 17.7044C139.614 18.4048 138.33 18.7856 136.779 18.7856C135.083 18.7856 133.76 18.3783 132.854 17.8381C132.402 17.5683 132.049 17.263 131.807 16.9545C131.568 16.6496 131.424 16.3241 131.424 16.0181C131.424 15.7396 131.534 15.5193 131.681 15.3544C131.922 15.0825 132.248 15.0452 132.537 15.113C132.819 15.179 133.091 15.3473 133.3 15.5324C133.941 16.102 135.13 16.8833 136.831 16.8833C137.836 16.8833 138.589 16.679 139.083 16.3477C139.568 16.0225 139.813 15.5703 139.813 15.0249C139.813 14.6879 139.74 14.435 139.61 14.2331C139.478 14.0296 139.277 13.8592 138.99 13.7083C138.404 13.4 137.527 13.2033 136.339 12.9525Z" fill="#FF4600"/>
<path fill-rule="evenodd" clip-rule="evenodd" d="M117.576 12.0717C117.576 14.0344 118.256 15.7157 119.437 16.907C120.618 18.0984 122.287 18.7856 124.238 18.7856C125.968 18.7856 127.325 18.2959 128.256 17.6858C128.72 17.3813 129.081 17.0447 129.329 16.7206C129.571 16.4035 129.723 16.0727 129.723 15.7829C129.723 15.5519 129.658 15.3573 129.554 15.1979C129.438 15.0189 129.28 14.9048 129.098 14.8513C128.921 14.7993 128.736 14.8087 128.563 14.8486C128.22 14.9278 127.876 15.1383 127.617 15.3612C126.879 15.9977 125.658 16.8049 124.238 16.8049C121.78 16.8049 119.983 15.1363 119.757 12.7223H129.177C129.435 12.7223 129.687 12.7013 129.867 12.5634C130.068 12.4098 130.115 12.1686 130.115 11.9149V11.7581C130.115 9.81654 129.525 8.1882 128.466 7.04291C127.404 5.89588 125.889 5.25322 124.081 5.25322C120.335 5.25322 117.576 8.1645 117.576 12.0717ZM127.827 10.7938C127.714 9.72314 127.325 8.85383 126.727 8.24203C126.086 7.58576 125.188 7.20785 124.081 7.20785C121.942 7.20785 120.276 8.66305 119.837 10.7938H127.827Z" fill="#FF4600"/>
<path fill-rule="evenodd" clip-rule="evenodd" d="M112.413 6.93883L112.413 6.31001C112.413 5.71974 111.935 5.24125 111.345 5.24126C110.754 5.24126 110.276 5.71978 110.276 6.31007L110.276 17.6636C110.276 18.2611 110.76 18.7455 111.358 18.7455C111.955 18.7455 112.44 18.2611 112.44 17.6636V12.6468C112.44 9.53959 113.437 8.12636 114.155 7.55467C114.525 7.25989 115.006 7.10701 115.491 7.10535C115.587 7.10503 115.682 7.11197 115.772 7.12875C115.901 7.15283 116.015 7.17738 116.115 7.20147C116.353 7.25864 116.607 7.21068 116.811 7.09756C117.015 6.98432 117.194 6.79065 117.245 6.53267C117.333 6.09464 117.162 5.57956 116.662 5.42187C116.372 5.33058 115.979 5.25382 115.479 5.25336C114.598 5.21995 113.85 5.45598 113.253 5.93707C112.922 6.20356 112.643 6.5407 112.413 6.93883Z" fill="#FF4600"/>
<path fill-rule="evenodd" clip-rule="evenodd" d="M105.669 16.9951V17.6768C105.669 18.267 106.148 18.7455 106.738 18.7455C107.329 18.7455 107.807 18.267 107.807 17.6768V6.32311C107.807 5.72562 107.323 5.24125 106.725 5.24125C106.128 5.24125 105.643 5.72562 105.643 6.32311V13.1943C105.643 13.9149 105.517 14.6109 105.108 15.1361C104.349 16.1135 103.231 16.7267 101.903 16.7267C100.848 16.7267 100.048 16.3749 99.5084 15.7489C98.9645 15.118 98.6598 14.179 98.6598 12.9605V6.32311C98.6598 5.72562 98.1754 5.24125 97.578 5.24125C96.9805 5.24125 96.4961 5.72562 96.4961 6.32311V13.065C96.4961 14.7472 96.9165 16.1798 97.7869 17.1954C98.6621 18.2164 99.9666 18.7858 101.668 18.7858C103.379 18.7858 104.733 18.0779 105.669 16.9951Z" fill="#FF4600"/>
<path fill-rule="evenodd" clip-rule="evenodd" d="M82.7131 20.37C82.7131 20.9772 82.8375 21.5176 83.0988 21.9846C83.3603 22.4521 83.7518 22.8333 84.2662 23.1322C85.2869 23.7253 86.8005 24 88.7998 24C90.8207 24 92.4548 23.6508 93.5922 22.9848C94.7405 22.3124 95.3831 21.3137 95.3831 20.0564C95.3831 18.9751 94.865 18.2052 94.1259 17.6579C93.3964 17.1176 92.4462 16.7885 91.5484 16.5641C91.1128 16.4539 90.7233 16.3631 90.3768 16.2823L90.3763 16.2822C89.8007 16.1481 89.3436 16.0415 88.9899 15.9196C88.7103 15.8232 88.5301 15.7277 88.4208 15.6245C88.3225 15.5317 88.2744 15.4266 88.2744 15.2737C88.2744 15.1352 88.2862 15.0232 88.3504 14.8921C88.5302 14.905 88.7185 14.905 88.896 14.905H88.9044C91.9362 14.905 94.2593 12.811 94.2593 10.099C94.2593 9.08174 93.8907 8.1185 93.2973 7.34545L94.4625 5.6725C94.7587 5.2472 94.6411 4.66084 94.2039 4.38257C93.7833 4.11489 93.2256 4.23482 92.9522 4.65177L91.9743 6.14322C91.1064 5.5943 90.0397 5.26674 88.9044 5.26674C85.8866 5.26674 83.6278 7.47645 83.6278 10.2035C83.6278 12.114 84.7949 13.7178 86.5875 14.4619C86.3549 14.788 86.1891 15.1801 86.1891 15.5873C86.1891 16.0383 86.3194 16.3823 86.5186 16.6507C85.5194 16.8948 84.6266 17.3012 83.9561 17.8625C83.1915 18.5025 82.7131 19.3481 82.7131 20.37ZM91.1874 12.283C91.7258 11.7685 92.0433 11.0339 92.0433 10.1512C92.0433 9.26816 91.7255 8.52 91.1798 7.99233C90.6338 7.46432 89.8448 7.14296 88.8782 7.14296C87.9645 7.14296 87.202 7.45083 86.669 7.97185C86.1365 8.49235 85.8177 9.24054 85.8177 10.1512C85.8177 11.0326 86.1408 11.7674 86.6829 12.2826C87.226 12.7986 88.0027 13.1072 88.9305 13.1072C89.872 13.1072 90.6482 12.7983 91.1874 12.283ZM92.7767 19.2213C92.4779 18.9771 92.0456 18.7838 91.5234 18.616C89.9357 18.106 88.2204 17.9098 86.6958 18.4598C85.523 18.883 84.8296 19.5396 84.8296 20.3567C84.8296 20.8984 85.1219 21.3313 85.7781 21.6429C86.4475 21.9608 87.4718 22.1366 88.8571 22.1366C90.265 22.1366 91.3748 21.9355 92.1237 21.5719C92.8647 21.2121 93.2244 20.7113 93.2244 20.0953C93.2244 19.7364 93.067 19.4584 92.7767 19.2213Z" fill="#FF4600"/>
<path fill-rule="evenodd" clip-rule="evenodd" d="M79.3581 17.6637V6.32309C79.3581 5.7256 79.8425 5.24124 80.4399 5.24124C81.0374 5.24124 81.5218 5.7256 81.5218 6.32309V17.6637C81.5218 18.2612 81.0374 18.7455 80.4399 18.7455C79.8425 18.7455 79.3581 18.2612 79.3581 17.6637ZM80.4269 2.92181C79.695 2.92181 79.0967 2.31647 79.0967 1.56554C79.0967 0.777899 79.7056 0.20927 80.4792 0.20927C81.2373 0.20927 81.8093 0.788541 81.8093 1.56554C81.8093 2.35318 81.2004 2.92181 80.4269 2.92181Z" fill="#FF4600"/>
<path fill-rule="evenodd" clip-rule="evenodd" d="M73.5473 4.7276C73.5473 3.70801 73.6977 3.02112 73.9848 2.59329C74.2579 2.18635 74.6783 1.98076 75.3272 1.98076C75.6264 1.98076 75.9932 2.09628 76.3366 2.24626C76.6483 2.38236 77.0377 2.46911 77.3668 2.42421C77.5333 2.40149 77.7042 2.34211 77.8356 2.21676C77.9726 2.08611 78.0425 1.90682 78.0425 1.69602C78.0425 1.22545 77.7886 0.792096 77.3237 0.485895C76.8627 0.182234 76.1931 0 75.3272 0C74.0711 0 73.0838 0.412119 72.4164 1.2251C71.7553 2.03035 71.4358 3.19545 71.4358 4.64927L71.436 5.24105H69.7869C69.2399 5.24105 68.7965 5.68446 68.7965 6.23143C68.7965 6.7784 69.2399 7.22181 69.7869 7.22181H71.4361L71.4359 17.6765C71.4358 18.2668 71.9144 18.7453 72.5046 18.7453C73.0949 18.7453 73.5734 18.2668 73.5734 17.6766L73.5737 7.22181H75.8763C76.4233 7.22181 76.8667 6.7784 76.8667 6.23143C76.8667 5.68446 76.4233 5.24105 75.8763 5.24105H73.5475L73.5473 4.7276Z" fill="#FF4600"/>
<path fill-rule="evenodd" clip-rule="evenodd" d="M55.8803 22.5405V6.31004C55.8803 5.71977 56.3588 5.24125 56.9491 5.24125C57.5394 5.24125 58.0179 5.71977 58.0179 6.31004V7.22581C59.1245 5.95947 60.5407 5.25336 62.4374 5.25336C65.8736 5.25336 68.5503 7.93394 68.5503 11.9934C68.5503 14.0041 67.8996 15.7029 66.7896 16.9014C65.6787 18.1009 64.1198 18.7858 62.3329 18.7858C60.3994 18.7858 58.9135 17.927 58.044 16.9003V22.5405C58.044 23.138 57.5597 23.6224 56.9622 23.6224C56.3647 23.6224 55.8803 23.138 55.8803 22.5405ZM65.2118 15.5164C65.9358 14.6815 66.3604 13.4782 66.3604 12.0196C66.3604 9.18706 64.6037 7.20799 62.2545 7.20799C60.7551 7.20799 59.5962 7.77855 58.7869 8.73459C58.1684 9.46518 58.0179 10.4793 58.0179 11.5111V12.8559C58.0179 15.0905 59.9627 16.8311 62.2022 16.8311C63.458 16.8311 64.4904 16.3483 65.2118 15.5164Z" fill="#FF4600"/>
<path fill-rule="evenodd" clip-rule="evenodd" d="M41.7663 22.5405V6.31004C41.7663 5.71977 42.2448 5.24125 42.8351 5.24125C43.4254 5.24125 43.9039 5.71977 43.9039 6.31004V7.22581C45.0106 5.95947 46.4267 5.25336 48.3235 5.25336C51.7596 5.25336 54.4363 7.93394 54.4363 11.9934C54.4363 14.0041 53.7856 15.7029 52.6756 16.9014C51.5647 18.1009 50.0058 18.7858 48.2189 18.7858C46.2854 18.7858 44.7996 17.927 43.93 16.9003V22.5405C43.93 23.138 43.4457 23.6224 42.8482 23.6224C42.2507 23.6224 41.7663 23.138 41.7663 22.5405ZM51.0978 15.5164C51.8218 14.6815 52.2464 13.4782 52.2464 12.0196C52.2464 9.18706 50.4897 7.20799 48.1405 7.20799C46.6411 7.20799 45.4822 7.77855 44.6729 8.73459C44.0544 9.46518 43.9039 10.4793 43.9039 11.5111V12.8559C43.9039 15.0905 45.8487 16.8311 48.0882 16.8311C49.344 16.8311 50.3764 16.3483 51.0978 15.5164Z" fill="#FF4600"/>
<path fill-rule="evenodd" clip-rule="evenodd" d="M37.7637 10.5848H37.7952V10.3729C37.7952 9.3469 37.496 8.58543 36.9598 8.07866C36.4215 7.56996 35.611 7.28626 34.5256 7.28626C33.0331 7.28626 31.9775 7.86934 31.2804 8.68963C30.899 9.13845 30.1574 9.28053 29.6995 8.8102C29.4895 8.59456 29.3118 8.24591 29.4574 7.88455C29.8937 6.80207 31.7122 5.25322 34.6563 5.25322C36.2817 5.25322 37.6061 5.72405 38.5254 6.60859C39.4457 7.49418 39.9328 8.76847 39.9328 10.3207V17.7002C39.9328 18.2832 39.4601 18.7559 38.8771 18.7559C38.294 18.7559 37.8214 18.2832 37.8214 17.7002V16.8961C36.7619 18.0752 35.1998 18.7595 33.4018 18.7595C32.0056 18.7595 30.8759 18.4038 30.091 17.752C29.3012 17.0962 28.8832 16.1591 28.8832 15.0511C28.8832 14.285 29.0755 13.6183 29.4676 13.0518C29.8585 12.4871 30.4371 12.0373 31.1859 11.6849C32.6758 10.9838 34.8794 10.6503 37.7611 10.5848L37.7637 10.5848ZM33.5586 16.8833C36.0288 16.8833 37.7952 15.3587 37.7952 13.3V12.391L37.3045 12.4085C35.1787 12.4868 33.6008 12.715 32.5608 13.1518C32.0438 13.3689 31.6739 13.6317 31.4334 13.94C31.1958 14.2446 31.073 14.608 31.073 15.0511C31.073 15.6086 31.2962 16.0557 31.7043 16.3696C32.1189 16.6885 32.7431 16.8833 33.5586 16.8833Z" fill="#FF4600"/>
</svg>
